<?xml version="1.0" encoding="UTF-8"?>
<svg width="932px" height="312px" viewBox="0 0 932 312" version="1.1" xmlns="http://www.w3.org/2000/svg" xmlns:xlink="http://www.w3.org/1999/xlink" style="background: #0F1931;">
    <!-- Generator: Sketch 46.2 (44496) - http://www.bohemiancoding.com/sketch -->
    <title>Artboard Copy</title>
    <desc>Created with Sketch.</desc>
    <defs></defs>
    <g id="Page-1" stroke="none" stroke-width="1" fill="none" fill-rule="evenodd">
        <g id="Artboard-Copy">
            <g id="Group" transform="translate(49.000000, 63.000000)">
                <path d="M41.1036706,59 L38.2484949,59 L38.2484949,34.5907232 L41.1036706,34.5907232 L41.1036706,59 Z M60.1821858,57.1515625 C61.4915022,57.1515625 62.6440134,56.7912309 63.6397541,56.0705567 C64.6354947,55.3498825 65.27639,54.3789125 65.5624591,53.1576173 L65.5624591,50.1043947 C65.5074458,50.1043947 65.1746204,50.131901 64.5639728,50.1869143 C63.9533252,50.2419276 63.5544848,50.274935 63.3674396,50.2859377 C60.9798626,50.4949882 59.3157354,50.8855767 58.3750081,51.457715 C57.4342808,52.0298533 56.9639242,52.9485615 56.9639242,54.2138673 C56.9639242,55.1821013 57.249989,55.9137671 57.8221273,56.4088868 C58.3942655,56.9040064 59.1809438,57.1515625 60.1821858,57.1515625 Z M66.1731036,59 C66.0080637,58.2958298 65.8485276,57.5366577 65.6944904,56.722461 C64.6932484,57.723703 63.7525352,58.4168601 62.8723225,58.8019531 C61.9921097,59.1870462 60.9578753,59.3795898 59.7695882,59.3795898 C58.0751787,59.3795898 56.7136201,58.9367395 55.6848714,58.0510254 C54.6561228,57.1653114 54.1417562,55.8917727 54.1417562,54.2303712 C54.1417562,52.3819245 54.8431652,51.012114 56.2460042,50.1208986 C57.6488433,49.2296833 59.6705515,48.6740573 62.3111897,48.4540041 C62.6742774,48.4209962 63.2216515,48.3742356 63.9533283,48.3137209 C64.6850051,48.2532063 65.2323792,48.2064457 65.5954669,48.1734377 L65.5954669,46.5725589 C65.5954669,45.2962504 65.2983996,44.350036 64.704256,43.7338871 C64.1101124,43.1177382 63.1749004,42.8096683 61.898592,42.8096683 C60.1161613,42.8096683 58.3172535,43.2497681 56.5018148,44.1299808 C56.4468015,43.9979489 56.3037691,43.6156122 56.0727132,42.9829593 C55.8416574,42.3503065 55.72063,42.0229823 55.7096273,42.0009769 C56.5128214,41.5498679 57.4672878,41.1895363 58.573055,40.9199711 C59.6788222,40.650406 60.8038272,40.5156254 61.9481037,40.5156254 C64.2036488,40.5156254 65.8292673,41.007987 66.8250079,41.992725 C67.8207485,42.977463 68.3186114,44.6525927 68.3186114,47.0181643 L68.3186114,59 L66.1731036,59 Z M96.0616772,59 L96.0616772,49.5762697 C96.0616772,48.696057 96.0424228,47.9588899 96.0039135,47.3647464 C95.9654042,46.7706028 95.8773842,46.1654656 95.739851,45.5493167 C95.6023178,44.9331678 95.4097741,44.4463075 95.1622143,44.088721 C94.9146545,43.7311346 94.5708265,43.4395685 94.1307202,43.214014 C93.6906138,42.9884595 93.1624941,42.875684 92.5463452,42.875684 C91.3360527,42.875684 90.3045689,43.2002575 89.4518629,43.8494144 C88.5991568,44.4985713 87.991269,45.4117783 87.6281813,46.5890628 C87.5291573,47.3812542 87.4796461,48.2284463 87.4796461,49.1306643 L87.4796461,59 L84.7234938,59 L84.7234938,49.2791994 C84.7234938,48.4650027 84.6959876,47.7580924 84.6409743,47.1584475 C84.585961,46.5588026 84.4814373,45.9756704 84.3274001,45.4090335 C84.1733629,44.8423966 83.9670661,44.3830425 83.7085036,44.0309574 C83.4499411,43.6788723 83.1061132,43.3983087 82.6770095,43.1892582 C82.2479058,42.9802076 81.7362898,42.875684 81.1421463,42.875684 C79.8218272,42.875684 78.7133259,43.21126 77.8166092,43.8824222 C76.9198925,44.5535844 76.317506,45.4447864 76.0094315,46.556055 C75.9104076,47.4032597 75.8608964,48.3219679 75.8608964,49.3122072 L75.8608964,59 L73.1047441,59 C73.0827388,47.678264 73.0717363,41.6433961 73.0717363,40.8952153 L75.3822831,40.8952153 L75.7288651,43.4863285 C76.2789981,42.6501264 77.0601751,41.9459668 78.0724198,41.3738285 C79.0846644,40.8016903 80.234425,40.5156254 81.5217361,40.5156254 C82.1928983,40.5156254 82.8117886,40.584391 83.3784255,40.7219242 C83.9450624,40.8594575 84.4181697,41.0327468 84.7977614,41.2417973 C85.1773531,41.4508478 85.5156798,41.7011545 85.8127516,41.992725 C86.1098234,42.2842955 86.3408758,42.5703603 86.5059157,42.8509281 C86.6709556,43.1314959 86.8084867,43.4258126 86.9185133,43.7338871 C88.2388324,41.5883686 90.25779,40.5156254 92.9754468,40.5156254 C94.9889334,40.5156254 96.4660182,41.0905057 97.4067455,42.2402836 C98.3474728,43.3900614 98.8178295,45.0926974 98.8178295,47.3482425 L98.8178295,59 L96.0616772,59 Z M116.163435,59.3795898 C114.931137,59.3795898 113.795129,59.2475599 112.755378,58.9834961 C111.715627,58.7194323 110.871185,58.378355 110.222028,57.9602539 L110.56861,55.6332032 C112.406054,56.6124398 114.210463,57.1020508 115.981892,57.1020508 C118.66654,57.1020508 120.047353,56.1558363 120.124372,54.263379 C120.124372,53.4601849 119.838307,52.8275415 119.266169,52.3654298 C118.694031,51.9033182 117.571776,51.3862009 115.899372,50.8140627 L114.529548,50.3354494 C112.945165,49.8073218 111.814659,49.1526734 111.137995,48.3714846 C110.461332,47.5902958 110.117504,46.6165751 110.106501,45.4502933 C110.106501,44.0309503 110.67588,42.8536834 111.814655,41.9184574 C112.953431,40.9832314 114.513034,40.5156254 116.493513,40.5156254 C118.540007,40.5156254 120.40493,40.9117152 122.088337,41.7039066 L121.279645,43.8164066 C119.574233,43.1122364 117.978872,42.7601566 116.493513,42.7601566 C115.338233,42.7601566 114.433278,42.9884584 113.77862,43.4450687 C113.123962,43.9016791 112.796638,44.5425743 112.796638,45.3677737 C112.796638,46.0719439 113.033191,46.6110661 113.506306,46.9851565 C113.97942,47.3592469 114.925634,47.7883442 116.344978,48.2724612 C116.708065,48.4044931 117.164669,48.558528 117.714802,48.7345705 C119.541243,49.3287141 120.834036,50.0301231 121.59322,50.8388185 C122.352403,51.647514 122.731989,52.7395115 122.731989,54.1148439 C122.709984,55.787248 122.110348,57.0827917 120.933063,58.0015137 C119.755779,58.9202357 118.165918,59.3795898 116.163435,59.3795898 Z M128.508356,49.9888674 C128.508356,52.1343859 128.984214,53.8535256 129.935944,55.146338 C130.887674,56.4391504 132.276739,57.0855469 134.10318,57.0855469 C135.907616,57.0855469 137.269175,56.441901 138.187897,55.1545899 C139.106619,53.8672788 139.565973,52.134386 139.565973,49.9558596 C139.565973,47.7443251 139.11212,46.0031805 138.204401,44.7323734 C137.296681,43.4615663 135.913118,42.8261722 134.053669,42.8261722 C132.249232,42.8261722 130.873921,43.4753194 129.927692,44.7736331 C128.981463,46.0719469 128.508356,47.8103409 128.508356,49.9888674 Z M142.421149,49.9393557 C142.421149,52.7450337 141.672979,55.0197993 140.176618,56.7637208 C138.680256,58.5076422 136.611787,59.3795898 133.971149,59.3795898 C131.429535,59.3795898 129.407827,58.4993903 127.905964,56.7389649 C126.404101,54.9785395 125.65318,52.717527 125.65318,49.9558596 C125.65318,47.1391789 126.406851,44.8616627 127.914216,43.1232425 C129.42158,41.3848224 131.490049,40.5156254 134.119684,40.5156254 C136.705309,40.5156254 138.735269,41.3875731 140.209625,43.1314945 C141.683982,44.8754159 142.421149,47.1446803 142.421149,49.9393557 Z M297.92095,42.8096683 C296.171527,42.8096683 294.831974,43.4120549 293.902249,44.616846 C292.972524,45.8216372 292.507669,47.5902881 292.507669,49.9228518 C292.507669,54.6980057 294.306577,57.0855469 297.904446,57.0855469 C298.795661,57.0855469 299.579589,56.9012551 300.256253,56.5326661 C300.932916,56.164077 301.466537,55.6469598 301.857132,54.9812989 C302.247726,54.3156381 302.539292,53.5647178 302.731839,52.7285158 C302.924385,51.8923137 303.020657,50.962603 303.020657,49.9393557 C303.020657,48.5530206 302.85837,47.3427463 302.533792,46.3084964 C302.209213,45.2742464 301.656338,44.4325557 300.875149,43.7833988 C300.09396,43.1342419 299.109237,42.8096683 297.92095,42.8096683 Z M298.201516,40.5156254 C299.807905,40.5156254 301.194219,40.9227177 302.360501,41.7369145 C303.526782,42.5511112 304.401481,43.6568618 304.984622,45.0541995 C305.567763,46.4515372 305.859329,48.0524001 305.859329,49.8568361 C305.859329,51.7272882 305.570513,53.372161 304.992874,54.791504 C304.415234,56.210847 303.540536,57.3303508 302.368753,58.1500488 C301.196969,58.9697469 299.796902,59.3795898 298.168509,59.3795898 C296.969219,59.3795898 295.874471,59.1210312 294.884231,58.6039063 C293.893992,58.0867813 293.068805,57.3826217 292.408645,56.4914063 L292.128079,59 L289.76802,59 L289.76802,33.8645513 L292.524173,33.6995123 L292.524173,39.6904301 C292.524173,41.1647864 292.502168,42.4300732 292.458157,43.4863285 C293.096311,42.5731078 293.924249,41.8496938 294.941995,41.3160649 C295.959741,40.7824359 297.046237,40.5156254 298.201516,40.5156254 Z M320.168215,44.2455081 C319.365021,43.2772742 318.25927,42.7931644 316.85093,42.7931644 C315.44259,42.7931644 314.292829,43.2910273 313.401614,44.2867679 C312.510398,45.2825085 311.98778,46.6440672 311.833743,48.3714846 L321.389504,48.3714846 C321.389504,46.5780512 320.982412,45.2027395 320.168215,44.2455081 Z M317.395559,59.3795898 C314.765923,59.3795898 312.694704,58.5434003 311.181838,56.8709961 C309.668973,55.198592 308.912551,52.9100733 308.912551,50.0053713 C308.912551,47.1996933 309.644217,44.9249277 311.107571,43.1810062 C312.570924,41.4370848 314.496361,40.5486334 316.883938,40.5156254 C319.12848,40.5156254 320.908134,41.2830494 322.222951,42.8179203 C323.537769,44.3527912 324.195168,46.4020057 324.195168,48.9656252 C324.195168,49.0976571 324.192417,49.339712 324.186916,49.6917971 C324.181415,50.0438822 324.178664,50.2969395 324.178664,50.4509768 L311.751223,50.4509768 C311.784231,52.508474 312.315101,54.1120875 313.34385,55.2618653 C314.372599,56.4116432 315.756162,56.9865235 317.494582,56.9865235 C319.409045,56.9865235 321.32898,56.4804088 323.254445,55.4681641 L323.683547,57.6961914 C321.846103,58.8184626 319.750128,59.3795898 317.395559,59.3795898 Z M335.681887,59.3795898 C333.019243,59.3795898 330.937021,58.5158941 329.435158,56.7884766 C327.933295,55.0610592 327.182375,52.8000467 327.182375,50.0053713 C327.193378,47.1886906 327.960802,44.9029225 329.48467,43.1479984 C331.008538,41.3930743 333.096261,40.5156254 335.747902,40.5156254 C336.683128,40.5156254 337.588083,40.6311516 338.462795,40.8622074 C339.337506,41.0932633 340.027913,41.3958319 340.534035,41.7699223 L339.774855,43.91543 C338.487544,43.2222625 337.128736,42.875684 335.698391,42.875684 C333.948968,42.875684 332.565404,43.5138286 331.547658,44.790137 C330.529912,46.0664455 330.021047,47.8103408 330.021047,50.0218752 C330.021047,52.1783964 330.524411,53.8865335 331.531154,55.146338 C332.537898,56.4061424 333.932464,57.0360352 335.714894,57.0360352 C337.134237,57.0360352 338.586567,56.6509479 340.071926,55.8807618 L340.418508,58.0757813 C339.219218,58.9449913 337.64036,59.3795898 335.681887,59.3795898 Z M349.231593,57.1515625 C350.54091,57.1515625 351.693421,56.7912309 352.689162,56.0705567 C353.684902,55.3498825 354.325798,54.3789125 354.611867,53.1576173 L354.611867,50.1043947 C354.556853,50.1043947 354.224028,50.131901 353.61338,50.1869143 C353.002733,50.2419276 352.603892,50.274935 352.416847,50.2859377 C350.02927,50.4949882 348.365143,50.8855767 347.424416,51.457715 C346.483688,52.0298533 346.013332,52.9485615 346.013332,54.2138673 C346.013332,55.1821013 346.299397,55.9137671 346.871535,56.4088868 C347.443673,56.9040064 348.230351,57.1515625 349.231593,57.1515625 Z M355.222511,59 C355.057471,58.2958298 354.897935,57.5366577 354.743898,56.722461 C353.742656,57.723703 352.801943,58.4168601 351.92173,58.8019531 C351.041517,59.1870462 350.007283,59.3795898 348.818996,59.3795898 C347.124586,59.3795898 345.763028,58.9367395 344.734279,58.0510254 C343.70553,57.1653114 343.191164,55.8917727 343.191164,54.2303712 C343.191164,52.3819245 343.892573,51.012114 345.295412,50.1208986 C346.698251,49.2296833 348.719959,48.6740573 351.360597,48.4540041 C351.723685,48.4209962 352.271059,48.3742356 353.002736,48.3137209 C353.734413,48.2532063 354.281787,48.2064457 354.644874,48.1734377 L354.644874,46.5725589 C354.644874,45.2962504 354.347807,44.350036 353.753664,43.7338871 C353.15952,43.1177382 352.224308,42.8096683 350.948,42.8096683 C349.165569,42.8096683 347.366661,43.2497681 345.551222,44.1299808 C345.496209,43.9979489 345.353177,43.6156122 345.122121,42.9829593 C344.891065,42.3503065 344.770038,42.0229823 344.759035,42.0009769 C345.562229,41.5498679 346.516695,41.1895363 347.622463,40.9199711 C348.72823,40.650406 349.853235,40.5156254 350.997511,40.5156254 C353.253056,40.5156254 354.878675,41.007987 355.874415,41.992725 C356.870156,42.977463 357.368019,44.6525927 357.368019,47.0181643 L357.368019,59 L355.222511,59 Z M361.493995,52.9595704 L361.493995,40.8952153 L364.266652,40.8952153 L364.266652,52.9925783 C364.266652,53.7847697 364.379427,54.4559218 364.604982,55.0060548 C364.830536,55.5561877 365.15511,55.9825344 365.578712,56.2851075 C366.002314,56.5876806 366.480923,56.8049799 367.014552,56.9370118 C367.548181,57.0690437 368.16157,57.1350586 368.854737,57.1350586 C370.285083,57.1350586 371.399086,56.8214876 372.196778,56.194336 C372.994471,55.5671844 373.393312,54.4999425 373.393312,52.9925783 L373.393312,40.8952153 L376.165968,40.8952153 L376.165968,52.9595704 C376.165968,53.8837938 376.033938,54.7144821 375.769874,55.4516602 C375.50581,56.1888384 375.15098,56.8022274 374.705372,57.2918457 C374.259764,57.7814641 373.723393,58.1858057 373.096241,58.5048828 C372.46909,58.8239599 371.806189,59.0550123 371.107521,59.1980469 C370.408852,59.3410814 369.657932,59.4125976 368.854737,59.4125976 C368.062546,59.4125976 367.314376,59.3410814 366.610206,59.1980469 C365.906036,59.0550123 365.237635,58.8212093 364.604982,58.4966309 C363.972329,58.1720524 363.427705,57.7649602 362.971095,57.2753418 C362.514485,56.7857235 362.154153,56.1723345 361.890089,55.4351563 C361.626025,54.6979782 361.493995,53.8727911 361.493995,52.9595704 Z M385.672218,59.3795898 C384.43992,59.3795898 383.303912,59.2475599 382.264161,58.9834961 C381.22441,58.7194323 380.379968,58.378355 379.730811,57.9602539 L380.077393,55.6332032 C381.914837,56.6124398 383.719246,57.1020508 385.490675,57.1020508 C388.175323,57.1020508 389.556136,56.1558363 389.633155,54.263379 C389.633155,53.4601849 389.34709,52.8275415 388.774952,52.3654298 C388.202814,51.9033182 387.080559,51.3862009 385.408155,50.8140627 L384.038331,50.3354494 C382.453948,49.8073218 381.323442,49.1526734 380.646778,48.3714846 C379.970115,47.5902958 379.626287,46.6165751 379.615284,45.4502933 C379.615284,44.0309503 380.184663,42.8536834 381.323438,41.9184574 C382.462214,40.9832314 384.021817,40.5156254 386.002296,40.5156254 C388.04879,40.5156254 389.913713,40.9117152 391.59712,41.7039066 L390.788428,43.8164066 C389.083016,43.1122364 387.487655,42.7601566 386.002296,42.7601566 C384.847016,42.7601566 383.942061,42.9884584 383.287403,43.4450687 C382.632745,43.9016791 382.305421,44.5425743 382.305421,45.3677737 C382.305421,46.0719439 382.541974,46.6110661 383.015089,46.9851565 C383.488203,47.3592469 384.434417,47.7883442 385.85376,48.2724612 C386.216848,48.4044931 386.673452,48.558528 387.223585,48.7345705 C389.050026,49.3287141 390.342819,50.0301231 391.102003,50.8388185 C391.861186,51.647514 392.240772,52.7395115 392.240772,54.1148439 C392.218767,55.787248 391.619131,57.0827917 390.441846,58.0015137 C389.264562,58.9202357 387.674701,59.3795898 385.672218,59.3795898 Z M406.434131,44.2455081 C405.630937,43.2772742 404.525186,42.7931644 403.116846,42.7931644 C401.708506,42.7931644 400.558745,43.2910273 399.66753,44.2867679 C398.776314,45.2825085 398.253696,46.6440672 398.099659,48.3714846 L407.65542,48.3714846 C407.65542,46.5780512 407.248328,45.2027395 406.434131,44.2455081 Z M403.661475,59.3795898 C401.031839,59.3795898 398.96062,58.5434003 397.447754,56.8709961 C395.934889,55.198592 395.178467,52.9100733 395.178467,50.0053713 C395.178467,47.1996933 395.910133,44.9249277 397.373487,43.1810062 C398.83684,41.4370848 400.762277,40.5486334 403.149854,40.5156254 C405.394396,40.5156254 407.17405,41.2830494 408.488867,42.8179203 C409.803685,44.3527912 410.461084,46.4020057 410.461084,48.9656252 C410.461084,49.0976571 410.458334,49.339712 410.452832,49.6917971 C410.447331,50.0438822 410.44458,50.2969395 410.44458,50.4509768 L398.017139,50.4509768 C398.050147,52.508474 398.581017,54.1120875 399.609766,55.2618653 C400.638515,56.4116432 402.022078,56.9865235 403.760498,56.9865235 C405.674961,56.9865235 407.594896,56.4804088 409.520362,55.4681641 L409.949463,57.6961914 C408.112019,58.8184626 406.016044,59.3795898 403.661475,59.3795898 Z M426.222314,59 L423.367139,59 L423.367139,34.5907232 L426.222314,34.5907232 L426.222314,59 Z M574.229342,59.3795898 C571.566699,59.3795898 569.484477,58.5158941 567.982614,56.7884766 C566.480751,55.0610592 565.729831,52.8000467 565.729831,50.0053713 C565.740833,47.1886906 566.508257,44.9029225 568.032126,43.1479984 C569.555994,41.3930743 571.643717,40.5156254 574.295358,40.5156254 C575.230584,40.5156254 576.135539,40.6311516 577.01025,40.8622074 C577.884962,41.0932633 578.575368,41.3958319 579.08149,41.7699223 L578.322311,43.91543 C577.035,43.2222625 575.676192,42.875684 574.245846,42.875684 C572.496423,42.875684 571.11286,43.5138286 570.095114,44.790137 C569.077368,46.0664455 568.568502,47.8103408 568.568502,50.0218752 C568.568502,52.1783964 569.071867,53.8865335 570.07861,55.146338 C571.085353,56.4061424 572.479919,57.0360352 574.26235,57.0360352 C575.681693,57.0360352 577.134022,56.6509479 578.619381,55.8807618 L578.965963,58.0757813 C577.766673,58.9449913 576.187815,59.3795898 574.229342,59.3795898 Z M584.560787,49.9888674 C584.560787,52.1343859 585.036645,53.8535256 585.988375,55.146338 C586.940105,56.4391504 588.32917,57.0855469 590.155611,57.0855469 C591.960047,57.0855469 593.321606,56.441901 594.240328,55.1545899 C595.15905,53.8672788 595.618404,52.134386 595.618404,49.9558596 C595.618404,47.7443251 595.164551,46.0031805 594.256832,44.7323734 C593.349113,43.4615663 591.965549,42.8261722 590.1061,42.8261722 C588.301664,42.8261722 586.926352,43.4753194 585.980123,44.7736331 C585.033894,46.0719469 584.560787,47.8103409 584.560787,49.9888674 Z M598.47358,49.9393557 C598.47358,52.7450337 597.72541,55.0197993 596.229049,56.7637208 C594.732687,58.5076422 592.664218,59.3795898 590.02358,59.3795898 C587.481966,59.3795898 585.460258,58.4993903 583.958395,56.7389649 C582.456532,54.9785395 581.705612,52.717527 581.705612,49.9558596 C581.705612,47.1391789 582.459282,44.8616627 583.966647,43.1232425 C585.474011,41.3848224 587.54248,40.5156254 590.172115,40.5156254 C592.75774,40.5156254 594.7877,41.3875731 596.262057,43.1314945 C597.736413,44.8754159 598.47358,47.1446803 598.47358,49.9393557 Z M609.432173,57.0030274 C611.247612,57.0030274 612.598168,56.4198952 613.483882,55.2536134 C614.369596,54.0873315 614.812447,52.4204537 614.812447,50.2529299 C614.812447,47.8103396 614.3861,45.9701725 613.533394,44.7323734 C612.680688,43.4945742 611.302626,42.875684 609.399166,42.875684 C608.551961,42.875684 607.803791,43.0572251 607.154634,43.4203129 C606.505478,43.7834006 605.982859,44.2895153 605.586763,44.9386722 C605.190668,45.5878291 604.89085,46.333248 604.6873,47.1749514 C604.483751,48.0166548 604.381978,48.9381137 604.381978,49.9393557 C604.381978,51.347696 604.555267,52.5689728 604.901851,53.6032228 C605.248435,54.6374727 605.806812,55.4626598 606.576998,56.0788087 C607.347184,56.6949576 608.2989,57.0030274 609.432173,57.0030274 Z M614.861958,56.375879 C614.267815,57.2890997 613.475635,58.0152643 612.485396,58.5543945 C611.495157,59.0935248 610.389406,59.3630859 609.168111,59.3630859 C606.780534,59.3630859 604.91011,58.5131433 603.556783,56.8132325 C602.203456,55.1133217 601.526802,52.8000473 601.526802,49.87334 C601.526802,47.0786647 602.214458,44.8204028 603.589791,43.0984867 C604.965123,41.3765706 606.808041,40.5156254 609.118599,40.5156254 C610.317889,40.5156254 611.448395,40.7769346 612.510152,41.2995609 C613.571908,41.8221872 614.366839,42.5235962 614.894966,43.4038089 L614.845455,41.8359379 L614.845455,33.8645513 L617.568599,33.6995123 L617.568599,59 L615.225044,59 L614.861958,56.375879 Z M625.606001,40.8952153 L625.606001,59 L622.833345,59 L622.833345,40.8952153 L625.606001,40.8952153 Z M625.606001,34.3101568 L625.606001,37.5779302 L622.833345,37.5779302 L622.833345,34.3101568 L625.606001,34.3101568 Z M630.788228,59 L630.788228,40.8952153 L633.098774,40.8952153 L633.445356,43.4863285 C634.160529,42.5951131 635.054482,41.8772004 636.127241,41.3325688 C637.2,40.7879371 638.358013,40.5156254 639.601313,40.5156254 C641.691819,40.5156254 643.237669,41.1015082 644.238911,42.2732914 C645.240153,43.4450746 645.740766,45.2467329 645.740766,47.6783206 L645.740766,59 L642.984614,59 C642.984614,51.7382451 642.979113,47.8488635 642.96811,47.3317385 C642.9241,45.7913663 642.613279,44.6636107 642.035639,43.9484378 C641.458,43.233265 640.492531,42.875684 639.139204,42.875684 C637.719861,42.875684 636.537093,43.2167613 635.590864,43.8989261 C634.644636,44.581091 634.028496,45.4667917 633.742427,46.556055 C633.6324,47.2932331 633.577388,48.1404251 633.577388,49.0976565 L633.577388,59 L630.788228,59 Z M657.359516,56.6399415 C658.294742,56.6399415 659.114428,56.4749041 659.818598,56.1448243 C660.522768,55.8147445 661.072893,55.358141 661.468989,54.7750001 C661.865084,54.1918592 662.159401,53.542712 662.351948,52.8275392 C662.544494,52.1123664 662.640766,51.3311893 662.640766,50.4839846 L662.640766,49.1471682 C662.640766,48.2669555 662.541744,47.4555216 662.343696,46.7128421 C662.145648,45.9701626 661.840329,45.3045117 661.427729,44.7158695 C661.015129,44.1272272 660.465004,43.6678731 659.777338,43.3377933 C659.089672,43.0077136 658.289241,42.8426761 657.37602,42.8426761 C656.616837,42.8426761 655.92643,42.9857086 655.30478,43.2717777 C654.68313,43.5578468 654.171514,43.9346822 653.769917,44.4022953 C653.368319,44.8699083 653.027242,45.4145317 652.746674,46.0361819 C652.466107,46.6578322 652.265311,47.2877249 652.144282,47.9258792 C652.023253,48.5640334 651.962739,49.2076793 651.962739,49.8568361 C651.962739,50.4949904 652.028754,51.1276338 652.160786,51.7547853 C652.292818,52.3819369 652.501865,52.9925753 652.787934,53.5867189 C653.074003,54.1808625 653.420582,54.7007303 653.82768,55.146338 C654.234779,55.5919457 654.743644,55.9522773 655.354292,56.2273438 C655.964939,56.5024103 656.633341,56.6399415 657.359516,56.6399415 Z M653.118012,67.2849608 L652.870454,64.792871 L656.23725,64.792871 C657.172476,64.792871 657.986661,64.726856 658.679829,64.5948241 C659.372996,64.4627922 659.950627,64.2454929 660.412739,63.9429198 C660.87485,63.6403467 661.248935,63.3047706 661.535004,62.9361816 C661.821073,62.5675925 662.038373,62.088984 662.186909,61.5003417 C662.335444,60.9116995 662.434467,60.3285673 662.483979,59.7509277 C662.533491,59.1732881 662.558246,58.4663779 662.558246,57.6301758 L662.558246,56.0292969 C661.898087,56.9755256 661.133414,57.7044408 660.264204,58.2160645 C659.394993,58.7276881 658.289243,58.9834961 656.946918,58.9834961 C655.912668,58.9834961 654.958202,58.8047056 654.083491,58.4471192 C653.208779,58.0895327 652.471612,57.6136749 651.871967,57.0195313 C651.272322,56.4253877 650.760706,55.7377318 650.337104,54.9565431 C649.913502,54.1753543 649.605432,53.366671 649.412885,52.5304689 C649.220339,51.6942668 649.124067,50.852576 649.124067,50.0053713 C649.124067,48.6850522 649.286354,47.4637754 649.610932,46.3415042 C649.935511,45.219233 650.41687,44.218006 651.055024,43.3377933 C651.693178,42.4575806 652.532118,41.7671741 653.57187,41.2665531 C654.611621,40.7659322 655.802641,40.5156254 657.144965,40.5156254 C658.333252,40.5156254 659.370238,40.7439272 660.255952,41.2005375 C661.141666,41.6571479 661.936596,42.3585568 662.640766,43.3047855 L662.640766,40.8952153 L665.330903,40.8952153 L665.330903,57.6961914 C665.330903,58.4663776 665.311648,59.1402803 665.273139,59.7179199 C665.23463,60.2955595 665.141108,60.9364548 664.992573,61.6406249 C664.844037,62.3447951 664.643241,62.9499323 664.39018,63.4560546 C664.137119,63.9621769 663.782288,64.4710422 663.325678,64.9826659 C662.869068,65.4942895 662.324444,65.906883 661.691791,66.2204588 C661.059138,66.5340346 660.275211,66.7898426 659.339985,66.9878904 C658.404759,67.1859383 657.348519,67.2849608 656.171235,67.2849608 L653.118012,67.2849608 Z M670.777192,58.5543945 C670.392098,58.1142882 670.199555,57.6026722 670.199555,57.0195313 C670.199555,56.4363904 670.394849,55.927525 670.785444,55.49292 C671.176038,55.058315 671.712409,54.8410157 672.394574,54.8410157 C673.087742,54.8410157 673.626864,55.0555643 674.011957,55.484668 C674.39705,55.9137717 674.589594,56.4253877 674.589594,57.0195313 C674.589594,57.6136749 674.39705,58.1252908 674.011957,58.5543945 C673.626864,58.9834982 673.087742,59.1980469 672.394574,59.1980469 C671.712409,59.1980469 671.173287,58.9834982 670.777192,58.5543945 Z M674.011957,34.3101568 L674.011957,36.6537114 L673.087738,51.8208009 L671.78393,51.8208009 L670.760688,36.6537114 L670.760688,34.3101568 L674.011957,34.3101568 Z M696.160199,59 L693.288519,59 L693.288519,37.1158208 L685.779242,37.1158208 L685.779242,34.5907232 L703.669476,34.5907232 L703.669476,37.1158208 L696.160199,37.1158208 L696.160199,59 Z M709.412835,40.8952153 L709.412835,59 L706.640179,59 L706.640179,40.8952153 L709.412835,40.8952153 Z M709.412835,34.3101568 L709.412835,37.5779302 L706.640179,37.5779302 L706.640179,34.3101568 L709.412835,34.3101568 Z M737.585003,59 L737.585003,49.5762697 C737.585003,48.696057 737.565748,47.9588899 737.527239,47.3647464 C737.48873,46.7706028 737.40071,46.1654656 737.263176,45.5493167 C737.125643,44.9331678 736.933099,44.4463075 736.68554,44.088721 C736.43798,43.7311346 736.094152,43.4395685 735.654046,43.214014 C735.213939,42.9884595 734.685819,42.875684 734.069671,42.875684 C732.859378,42.875684 731.827894,43.2002575 730.975188,43.8494144 C730.122482,44.4985713 729.514594,45.4117783 729.151507,46.5890628 C729.052483,47.3812542 729.002971,48.2284463 729.002971,49.1306643 L729.002971,59 L726.246819,59 L726.246819,49.2791994 C726.246819,48.4650027 726.219313,47.7580924 726.1643,47.1584475 C726.109286,46.5588026 726.004763,45.9756704 725.850725,45.4090335 C725.696688,44.8423966 725.490391,44.3830425 725.231829,44.0309574 C724.973267,43.6788723 724.629439,43.3983087 724.200335,43.1892582 C723.771231,42.9802076 723.259615,42.875684 722.665472,42.875684 C721.345153,42.875684 720.236651,43.21126 719.339935,43.8824222 C718.443218,44.5535844 717.840831,45.4447864 717.532757,46.556055 C717.433733,47.4032597 717.384222,48.3219679 717.384222,49.3122072 L717.384222,59 L714.628069,59 C714.606064,47.678264 714.595062,41.6433961 714.595062,40.8952153 L716.905608,40.8952153 L717.25219,43.4863285 C717.802323,42.6501264 718.583501,41.9459668 719.595745,41.3738285 C720.60799,40.8016903 721.75775,40.5156254 723.045061,40.5156254 C723.716224,40.5156254 724.335114,40.584391 724.901751,40.7219242 C725.468388,40.8594575 725.941495,41.0327468 726.321087,41.2417973 C726.700679,41.4508478 727.039005,41.7011545 727.336077,41.992725 C727.633149,42.2842955 727.864201,42.5703603 728.029241,42.8509281 C728.194281,43.1314959 728.331812,43.4258126 728.441839,43.7338871 C729.762158,41.5883686 731.781115,40.5156254 734.498772,40.5156254 C736.512259,40.5156254 737.989344,41.0905057 738.930071,42.2402836 C739.870798,43.3900614 740.341155,45.0926974 740.341155,47.3482425 L740.341155,59 L737.585003,59 Z M754.286955,44.2455081 C753.483761,43.2772742 752.378011,42.7931644 750.96967,42.7931644 C749.56133,42.7931644 748.411569,43.2910273 747.520354,44.2867679 C746.629139,45.2825085 746.10652,46.6440672 745.952483,48.3714846 L755.508244,48.3714846 C755.508244,46.5780512 755.101152,45.2027395 754.286955,44.2455081 Z M751.514299,59.3795898 C748.884664,59.3795898 746.813444,58.5434003 745.300579,56.8709961 C743.787713,55.198592 743.031291,52.9100733 743.031291,50.0053713 C743.031291,47.1996933 743.762957,44.9249277 745.226311,43.1810062 C746.689665,41.4370848 748.615101,40.5486334 751.002678,40.5156254 C753.24722,40.5156254 755.026874,41.2830494 756.341692,42.8179203 C757.656509,44.3527912 758.313908,46.4020057 758.313908,48.9656252 C758.313908,49.0976571 758.311158,49.339712 758.305656,49.6917971 C758.300155,50.0438822 758.297404,50.2969395 758.297404,50.4509768 L745.869963,50.4509768 C745.902971,52.508474 746.433842,54.1120875 747.46259,55.2618653 C748.491339,56.4116432 749.874902,56.9865235 751.613323,56.9865235 C753.527785,56.9865235 755.44772,56.4804088 757.373186,55.4681641 L757.802287,57.6961914 C755.964843,58.8184626 753.868868,59.3795898 751.514299,59.3795898 Z M776.352677,59.3300781 C774.570247,59.3300781 773.30496,58.8954796 772.556779,58.0262696 C771.808598,57.1570595 771.412509,55.7542415 771.368498,53.8177736 L771.368498,42.9416996 L768.678361,42.9416996 L768.793889,41.1262699 L771.351994,40.8952153 L772.292717,36.7527349 L774.108146,36.6867193 L774.108146,40.8952153 L779.141838,40.8952153 L779.141838,42.9416996 L774.108146,42.9416996 L774.108146,53.3226564 C774.108146,54.6979887 774.317194,55.6662082 774.735295,56.2273438 C775.153396,56.7884794 775.868558,57.069043 776.880802,57.069043 C777.24389,57.069043 778.030568,56.9810231 779.240861,56.8049805 L779.356388,58.9834961 C778.047072,59.2145519 777.045845,59.3300781 776.352677,59.3300781 Z M784.30756,49.9888674 C784.30756,52.1343859 784.783418,53.8535256 785.735148,55.146338 C786.686878,56.4391504 788.075943,57.0855469 789.902384,57.0855469 C791.70682,57.0855469 793.068379,56.441901 793.987101,55.1545899 C794.905823,53.8672788 795.365177,52.134386 795.365177,49.9558596 C795.365177,47.7443251 794.911324,46.0031805 794.003605,44.7323734 C793.095885,43.4615663 791.712322,42.8261722 789.852872,42.8261722 C788.048436,42.8261722 786.673125,43.4753194 785.726896,44.7736331 C784.780667,46.0719469 784.30756,47.8103409 784.30756,49.9888674 Z M798.220353,49.9393557 C798.220353,52.7450337 797.472183,55.0197993 795.975822,56.7637208 C794.47946,58.5076422 792.410991,59.3795898 789.770353,59.3795898 C787.228739,59.3795898 785.20703,58.4993903 783.705168,56.7389649 C782.203305,54.9785395 781.452384,52.717527 781.452384,49.9558596 C781.452384,47.1391789 782.206055,44.8616627 783.713419,43.1232425 C785.220784,41.3848224 787.289253,40.5156254 789.918888,40.5156254 C792.504513,40.5156254 794.534473,41.3875731 796.008829,43.1314945 C797.483186,44.8754159 798.220353,47.1446803 798.220353,49.9393557 Z M153.297223,150 C150.755609,141.880038 149.182252,136.824392 148.577106,134.83291 C148.236023,136.043203 147.845435,137.3525 147.405328,138.76084 C146.965222,140.16918 146.580135,141.379455 146.250055,142.391699 C145.919975,143.403944 145.490878,144.713241 144.96275,146.319629 C144.434623,147.926017 144.033032,149.152795 143.757965,150 L140.787262,150 L135.62154,131.895215 L138.476715,131.895215 L142.355133,146.715723 C142.894263,144.955297 144.478623,140.015178 147.108258,131.895215 L150.227496,131.895215 C152.846129,140.19122 154.386478,145.114836 154.84859,146.666211 L158.677496,131.895215 L161.499664,131.895215 L156.28443,150 L153.297223,150 Z M172.293218,131.730176 C172.788338,131.730176 173.23944,131.763184 173.646539,131.8292 L173.547515,134.370801 C173.041393,134.28278 172.601293,134.23877 172.227203,134.23877 C170.686831,134.23877 169.435297,134.775141 168.472564,135.847901 C167.509832,136.92066 167.028472,138.249211 167.028472,139.833594 L167.028472,150 L164.27232,150 C164.261318,138.887314 164.255816,132.852447 164.255816,131.895215 L166.549859,131.895215 L166.813922,135.146485 C167.441073,134.123237 168.238754,133.29805 169.206988,132.670899 C170.175222,132.043747 171.203955,131.730176 172.293218,131.730176 Z M179.73648,131.895215 L179.73648,150 L176.963824,150 L176.963824,131.895215 L179.73648,131.895215 Z M179.73648,125.310157 L179.73648,128.57793 L176.963824,128.57793 L176.963824,125.310157 L179.73648,125.310157 Z M190.695073,150.330078 C188.912643,150.330078 187.647356,149.89548 186.899175,149.02627 C186.150994,148.157059 185.754905,146.754242 185.710894,144.817774 L185.710894,133.9417 L183.020757,133.9417 L183.136285,132.12627 L185.69439,131.895215 L186.635113,127.752735 L188.450542,127.686719 L188.450542,131.895215 L193.484234,131.895215 L193.484234,133.9417 L188.450542,133.9417 L188.450542,144.322656 C188.450542,145.697989 188.65959,146.666208 189.077691,147.227344 C189.495792,147.788479 190.210954,148.069043 191.223198,148.069043 C191.586286,148.069043 192.372965,147.981023 193.583257,147.804981 L193.698784,149.983496 C192.389468,150.214552 191.388241,150.330078 190.695073,150.330078 Z M207.066948,135.245508 C206.263754,134.277274 205.158003,133.793164 203.749663,133.793164 C202.341323,133.793164 201.191562,134.291027 200.300347,135.286768 C199.409131,136.282509 198.886513,137.644067 198.732476,139.371485 L208.288237,139.371485 C208.288237,137.578051 207.881145,136.202739 207.066948,135.245508 Z M204.294292,150.37959 C201.664656,150.37959 199.593437,149.5434 198.080571,147.870996 C196.567706,146.198592 195.811284,143.910073 195.811284,141.005371 C195.811284,138.199693 196.54295,135.924928 198.006304,134.181006 C199.469657,132.437085 201.395094,131.548633 203.782671,131.515625 C206.027213,131.515625 207.806867,132.283049 209.121684,133.81792 C210.436502,135.352791 211.093901,137.402006 211.093901,139.965625 C211.093901,140.097657 211.091151,140.339712 211.085649,140.691797 C211.080148,141.043882 211.077397,141.29694 211.077397,141.450977 L198.649956,141.450977 C198.682964,143.508474 199.213834,145.112087 200.242583,146.261865 C201.271332,147.411643 202.654895,147.986523 204.393315,147.986523 C206.307778,147.986523 208.227713,147.480409 210.153179,146.468164 L210.58228,148.696191 C208.744836,149.818463 206.648861,150.37959 204.294292,150.37959 Z M228.75308,150.37959 C227.520783,150.37959 226.384775,150.24756 225.345024,149.983496 C224.305273,149.719432 223.460831,149.378355 222.811674,148.960254 L223.158256,146.633203 C224.9957,147.61244 226.800109,148.102051 228.571537,148.102051 C231.256186,148.102051 232.636999,147.155836 232.714018,145.263379 C232.714018,144.460185 232.427953,143.827542 231.855815,143.36543 C231.283676,142.903318 230.161422,142.386201 228.489018,141.814063 L227.119194,141.335449 C225.534811,140.807322 224.404305,140.152673 223.727641,139.371485 C223.050978,138.590296 222.70715,137.616575 222.696147,136.450293 C222.696147,135.03095 223.265526,133.853683 224.404301,132.918457 C225.543076,131.983231 227.10268,131.515625 229.083159,131.515625 C231.129653,131.515625 232.994576,131.911715 234.677983,132.703907 L233.869291,134.816407 C232.163879,134.112236 230.568518,133.760157 229.083159,133.760157 C227.927879,133.760157 227.022924,133.988458 226.368266,134.445069 C225.713608,134.901679 225.386284,135.542574 225.386284,136.367774 C225.386284,137.071944 225.622837,137.611066 226.095952,137.985157 C226.569066,138.359247 227.51528,138.788344 228.934623,139.272461 C229.297711,139.404493 229.754315,139.558528 230.304448,139.734571 C232.130889,140.328714 233.423682,141.030123 234.182865,141.838819 C234.942049,142.647514 235.321635,143.739511 235.321635,145.114844 C235.29963,146.787248 234.699994,148.082792 233.522709,149.001514 C232.345425,149.920236 230.755564,150.37959 228.75308,150.37959 Z M241.098002,140.988867 C241.098002,143.134386 241.57386,144.853526 242.52559,146.146338 C243.47732,147.43915 244.866385,148.085547 246.692826,148.085547 C248.497262,148.085547 249.858821,147.441901 250.777543,146.15459 C251.696265,144.867279 252.155619,143.134386 252.155619,140.95586 C252.155619,138.744325 251.701766,137.00318 250.794047,135.732373 C249.886327,134.461566 248.502764,133.826172 246.643314,133.826172 C244.838878,133.826172 243.463567,134.475319 242.517338,135.773633 C241.571109,137.071947 241.098002,138.810341 241.098002,140.988867 Z M255.010795,140.939356 C255.010795,143.745034 254.262625,146.019799 252.766263,147.763721 C251.269902,149.507642 249.201433,150.37959 246.560795,150.37959 C244.019181,150.37959 241.997472,149.49939 240.495609,147.738965 C238.993747,145.978539 238.242826,143.717527 238.242826,140.95586 C238.242826,138.139179 238.996497,135.861663 240.503861,134.123243 C242.011226,132.384822 244.079695,131.515625 246.70933,131.515625 C249.294955,131.515625 251.324915,132.387573 252.799271,134.131494 C254.273628,135.875416 255.010795,138.14468 255.010795,140.939356 Z M281.895657,150 L281.895657,140.57627 C281.895657,139.696057 281.876403,138.95889 281.837894,138.364746 C281.799384,137.770603 281.711364,137.165466 281.573831,136.549317 C281.436298,135.933168 281.243754,135.446307 280.996194,135.088721 C280.748635,134.731135 280.404807,134.439569 279.9647,134.214014 C279.524594,133.98846 278.996474,133.875684 278.380325,133.875684 C277.170033,133.875684 276.138549,134.200258 275.285843,134.849414 C274.433137,135.498571 273.825249,136.411778 273.462161,137.589063 C273.363138,138.381254 273.313626,139.228446 273.313626,140.130664 L273.313626,150 L270.557474,150 L270.557474,140.279199 C270.557474,139.465003 270.529968,138.758092 270.474954,138.158448 C270.419941,137.558803 270.315418,136.97567 270.16138,136.409034 C270.007343,135.842397 269.801046,135.383042 269.542484,135.030957 C269.283921,134.678872 268.940093,134.398309 268.51099,134.189258 C268.081886,133.980208 267.57027,133.875684 266.976126,133.875684 C265.655807,133.875684 264.547306,134.21126 263.650589,134.882422 C262.753873,135.553584 262.151486,136.444786 261.843412,137.556055 C261.744388,138.40326 261.694877,139.321968 261.694877,140.312207 L261.694877,150 L258.938724,150 C258.916719,138.678264 258.905716,132.643396 258.905716,131.895215 L261.216263,131.895215 L261.562845,134.486328 C262.112978,133.650126 262.894155,132.945967 263.9064,132.373829 C264.918645,131.80169 266.068405,131.515625 267.355716,131.515625 C268.026878,131.515625 268.645769,131.584391 269.212406,131.721924 C269.779043,131.859457 270.25215,132.032747 270.631742,132.241797 C271.011333,132.450848 271.34966,132.701155 271.646732,132.992725 C271.943804,133.284295 272.174856,133.57036 272.339896,133.850928 C272.504936,134.131496 272.642467,134.425813 272.752494,134.733887 C274.072813,132.588369 276.09177,131.515625 278.809427,131.515625 C280.822914,131.515625 282.299998,132.090506 283.240726,133.240284 C284.181453,134.390061 284.65181,136.092697 284.65181,138.348242 L284.65181,150 L281.895657,150 Z M298.59761,135.245508 C297.794416,134.277274 296.688665,133.793164 295.280325,133.793164 C293.871985,133.793164 292.722224,134.291027 291.831009,135.286768 C290.939793,136.282509 290.417175,137.644067 290.263138,139.371485 L299.818899,139.371485 C299.818899,137.578051 299.411807,136.202739 298.59761,135.245508 Z M295.824954,150.37959 C293.195318,150.37959 291.124099,149.5434 289.611233,147.870996 C288.098368,146.198592 287.341946,143.910073 287.341946,141.005371 C287.341946,138.199693 288.073612,135.924928 289.536966,134.181006 C291.000319,132.437085 292.925756,131.548633 295.313333,131.515625 C297.557875,131.515625 299.337529,132.283049 300.652346,133.81792 C301.967164,135.352791 302.624563,137.402006 302.624563,139.965625 C302.624563,140.097657 302.621813,140.339712 302.616311,140.691797 C302.61081,141.043882 302.608059,141.29694 302.608059,141.450977 L290.180618,141.450977 C290.213626,143.508474 290.744496,145.112087 291.773245,146.261865 C292.801994,147.411643 294.185557,147.986523 295.923977,147.986523 C297.83844,147.986523 299.758375,147.480409 301.683841,146.468164 L302.112942,148.696191 C300.275498,149.818463 298.179523,150.37959 295.824954,150.37959 Z M337.876906,150 L337.876906,140.57627 C337.876906,139.696057 337.857652,138.95889 337.819142,138.364746 C337.780633,137.770603 337.692613,137.165466 337.55508,136.549317 C337.417547,135.933168 337.225003,135.446307 336.977443,135.088721 C336.729883,134.731135 336.386055,134.439569 335.945949,134.214014 C335.505843,133.98846 334.977723,133.875684 334.361574,133.875684 C333.151282,133.875684 332.119798,134.200258 331.267092,134.849414 C330.414386,135.498571 329.806498,136.411778 329.44341,137.589063 C329.344386,138.381254 329.294875,139.228446 329.294875,140.130664 L329.294875,150 L326.538723,150 L326.538723,140.279199 C326.538723,139.465003 326.511217,138.758092 326.456203,138.158448 C326.40119,137.558803 326.296666,136.97567 326.142629,136.409034 C325.988592,135.842397 325.782295,135.383042 325.523733,135.030957 C325.26517,134.678872 324.921342,134.398309 324.492238,134.189258 C324.063135,133.980208 323.551519,133.875684 322.957375,133.875684 C321.637056,133.875684 320.528555,134.21126 319.631838,134.882422 C318.735121,135.553584 318.132735,136.444786 317.82466,137.556055 C317.725637,138.40326 317.676125,139.321968 317.676125,140.312207 L317.676125,150 L314.919973,150 C314.897968,138.678264 314.886965,132.643396 314.886965,131.895215 L317.197512,131.895215 L317.544094,134.486328 C318.094227,133.650126 318.875404,132.945967 319.887649,132.373829 C320.899893,131.80169 322.049654,131.515625 323.336965,131.515625 C324.008127,131.515625 324.627017,131.584391 325.193654,131.721924 C325.760291,131.859457 326.233399,132.032747 326.61299,132.241797 C326.992582,132.450848 327.330909,132.701155 327.627981,132.992725 C327.925052,133.284295 328.156105,133.57036 328.321145,133.850928 C328.486184,134.131496 328.623716,134.425813 328.733742,134.733887 C330.054061,132.588369 332.073019,131.515625 334.790676,131.515625 C336.804162,131.515625 338.281247,132.090506 339.221974,133.240284 C340.162702,134.390061 340.633058,136.092697 340.633058,138.348242 L340.633058,150 L337.876906,150 Z M346.161867,140.988867 C346.161867,143.134386 346.637725,144.853526 347.589455,146.146338 C348.541185,147.43915 349.93025,148.085547 351.756691,148.085547 C353.561127,148.085547 354.922686,147.441901 355.841408,146.15459 C356.76013,144.867279 357.219484,143.134386 357.219484,140.95586 C357.219484,138.744325 356.765631,137.00318 355.857912,135.732373 C354.950192,134.461566 353.566629,133.826172 351.707179,133.826172 C349.902743,133.826172 348.527431,134.475319 347.581203,135.773633 C346.634974,137.071947 346.161867,138.810341 346.161867,140.988867 Z M360.074659,140.939356 C360.074659,143.745034 359.32649,146.019799 357.830128,147.763721 C356.333767,149.507642 354.265298,150.37959 351.62466,150.37959 C349.083045,150.37959 347.061337,149.49939 345.559474,147.738965 C344.057611,145.978539 343.306691,143.717527 343.306691,140.95586 C343.306691,138.139179 344.060362,135.861663 345.567726,134.123243 C347.075091,132.384822 349.143559,131.515625 351.773195,131.515625 C354.35882,131.515625 356.38878,132.387573 357.863136,134.131494 C359.337492,135.875416 360.074659,138.14468 360.074659,140.939356 Z M372.089503,131.730176 C372.584623,131.730176 373.035725,131.763184 373.442823,131.8292 L373.3438,134.370801 C372.837678,134.28278 372.397578,134.23877 372.023487,134.23877 C370.483115,134.23877 369.231581,134.775141 368.268849,135.847901 C367.306116,136.92066 366.824757,138.249211 366.824757,139.833594 L366.824757,150 L364.068605,150 C364.057602,138.887314 364.052101,132.852447 364.052101,131.895215 L366.346144,131.895215 L366.610206,135.146485 C367.237358,134.123237 368.035039,133.29805 369.003273,132.670899 C369.971507,132.043747 371.00024,131.730176 372.089503,131.730176 Z M386.711964,135.245508 C385.908769,134.277274 384.803019,133.793164 383.394679,133.793164 C381.986338,133.793164 380.836578,134.291027 379.945362,135.286768 C379.054147,136.282509 378.531528,137.644067 378.377491,139.371485 L387.933253,139.371485 C387.933253,137.578051 387.52616,136.202739 386.711964,135.245508 Z M383.939307,150.37959 C381.309672,150.37959 379.238452,149.5434 377.725587,147.870996 C376.212721,146.198592 375.4563,143.910073 375.4563,141.005371 C375.4563,138.199693 376.187966,135.924928 377.651319,134.181006 C379.114673,132.437085 381.040109,131.548633 383.427686,131.515625 C385.672229,131.515625 387.451882,132.283049 388.7667,133.81792 C390.081518,135.352791 390.738917,137.402006 390.738917,139.965625 C390.738917,140.097657 390.736166,140.339712 390.730665,140.691797 C390.725163,141.043882 390.722413,141.29694 390.722413,141.450977 L378.294972,141.450977 C378.32798,143.508474 378.85885,145.112087 379.887599,146.261865 C380.916347,147.411643 382.299911,147.986523 384.038331,147.986523 C385.952793,147.986523 387.872729,147.480409 389.798194,146.468164 L390.227296,148.696191 C388.389851,149.818463 386.293876,150.37959 383.939307,150.37959 Z M408.233057,148.151563 C409.542373,148.151563 410.694884,147.791231 411.690625,147.070557 C412.686366,146.349883 413.327261,145.378912 413.61333,144.157617 L413.61333,141.104395 C413.558317,141.104395 413.225491,141.131901 412.614844,141.186914 C412.004196,141.241928 411.605356,141.274935 411.418311,141.285938 C409.030734,141.494988 407.366606,141.885577 406.425879,142.457715 C405.485152,143.029853 405.014795,143.948562 405.014795,145.213867 C405.014795,146.182101 405.30086,146.913767 405.872998,147.408887 C406.445137,147.904006 407.231815,148.151563 408.233057,148.151563 Z M414.223975,150 C414.058935,149.29583 413.899399,148.536658 413.745361,147.722461 C412.744119,148.723703 411.803406,149.41686 410.923194,149.801953 C410.042981,150.187046 409.008746,150.37959 407.820459,150.37959 C406.12605,150.37959 404.764491,149.936739 403.735742,149.051025 C402.706994,148.165311 402.192627,146.891773 402.192627,145.230371 C402.192627,143.381925 402.894036,142.012114 404.296875,141.120899 C405.699714,140.229683 407.721423,139.674057 410.362061,139.454004 C410.725148,139.420996 411.272523,139.374236 412.004199,139.313721 C412.735876,139.253206 413.28325,139.206446 413.646338,139.173438 L413.646338,137.572559 C413.646338,136.29625 413.349271,135.350036 412.755127,134.733887 C412.160983,134.117738 411.225771,133.809668 409.949463,133.809668 C408.167032,133.809668 406.368125,134.249768 404.552686,135.129981 C404.497673,134.997949 404.35464,134.615612 404.123584,133.982959 C403.892528,133.350306 403.771501,133.022982 403.760498,133.000977 C404.563692,132.549868 405.518159,132.189536 406.623926,131.919971 C407.729693,131.650406 408.854698,131.515625 409.998975,131.515625 C412.25452,131.515625 413.880138,132.007987 414.875879,132.992725 C415.87162,133.977463 416.369482,135.652593 416.369482,138.018164 L416.369482,150 L414.223975,150 Z M436.751806,150 C434.210192,141.880038 432.636835,136.824392 432.031689,134.83291 C431.690607,136.043203 431.300018,137.3525 430.859912,138.76084 C430.419805,140.16918 430.034718,141.379455 429.704638,142.391699 C429.374559,143.403944 428.945461,144.713241 428.417334,146.319629 C427.889206,147.926017 427.487615,149.152795 427.212549,150 L424.241846,150 L419.076123,131.895215 L421.931299,131.895215 L425.809717,146.715723 C426.348847,144.955297 427.933206,140.015178 430.562842,131.895215 L433.68208,131.895215 C436.300713,140.19122 437.841062,145.114836 438.303173,146.666211 L442.13208,131.895215 L444.954247,131.895215 L439.739013,150 L436.751806,150 Z M458.058349,135.245508 C457.255155,134.277274 456.149404,133.793164 454.741064,133.793164 C453.332723,133.793164 452.182963,134.291027 451.291747,135.286768 C450.400532,136.282509 449.877913,137.644067 449.723876,139.371485 L459.279638,139.371485 C459.279638,137.578051 458.872545,136.202739 458.058349,135.245508 Z M455.285693,150.37959 C452.656057,150.37959 450.584838,149.5434 449.071972,147.870996 C447.559106,146.198592 446.802685,143.910073 446.802685,141.005371 C446.802685,138.199693 447.534351,135.924928 448.997704,134.181006 C450.461058,132.437085 452.386494,131.548633 454.774071,131.515625 C457.018614,131.515625 458.798267,132.283049 460.113085,133.81792 C461.427903,135.352791 462.085302,137.402006 462.085302,139.965625 C462.085302,140.097657 462.082551,140.339712 462.07705,140.691797 C462.071548,141.043882 462.068798,141.29694 462.068798,141.450977 L449.641357,141.450977 C449.674365,143.508474 450.205235,145.112087 451.233984,146.261865 C452.262732,147.411643 453.646296,147.986523 455.384716,147.986523 C457.299179,147.986523 459.219114,147.480409 461.144579,146.468164 L461.573681,148.696191 C459.736237,149.818463 457.640262,150.37959 455.285693,150.37959 Z M471.310985,150.37959 C470.078687,150.37959 468.94268,150.24756 467.902929,149.983496 C466.863177,149.719432 466.018736,149.378355 465.369579,148.960254 L465.716161,146.633203 C467.553605,147.61244 469.358014,148.102051 471.129442,148.102051 C473.814091,148.102051 475.194904,147.155836 475.271923,145.263379 C475.271923,144.460185 474.985858,143.827542 474.413719,143.36543 C473.841581,142.903318 472.719327,142.386201 471.046923,141.814063 L469.677098,141.335449 C468.092716,140.807322 466.962209,140.152673 466.285546,139.371485 C465.608882,138.590296 465.265054,137.616575 465.254052,136.450293 C465.254052,135.03095 465.823431,133.853683 466.962206,132.918457 C468.100981,131.983231 469.660585,131.515625 471.641063,131.515625 C473.687558,131.515625 475.552481,131.911715 477.235887,132.703907 L476.427196,134.816407 C474.721784,134.112236 473.126422,133.760157 471.641063,133.760157 C470.485784,133.760157 469.580829,133.988458 468.926171,134.445069 C468.271513,134.901679 467.944188,135.542574 467.944188,136.367774 C467.944188,137.071944 468.180742,137.611066 468.653856,137.985157 C469.126971,138.359247 470.073185,138.788344 471.492528,139.272461 C471.855616,139.404493 472.312219,139.558528 472.862352,139.734571 C474.688794,140.328714 475.981587,141.030123 476.74077,141.838819 C477.499954,142.647514 477.87954,143.739511 477.87954,145.114844 C477.857534,146.787248 477.257898,148.082792 476.080614,149.001514 C474.903329,149.920236 473.313469,150.37959 471.310985,150.37959 Z M483.655907,140.988867 C483.655907,143.134386 484.131765,144.853526 485.083495,146.146338 C486.035225,147.43915 487.424289,148.085547 489.250731,148.085547 C491.055167,148.085547 492.416725,147.441901 493.335448,146.15459 C494.25417,144.867279 494.713524,143.134386 494.713524,140.95586 C494.713524,138.744325 494.259671,137.00318 493.351951,135.732373 C492.444232,134.461566 491.060668,133.826172 489.201219,133.826172 C487.396783,133.826172 486.021471,134.475319 485.075243,135.773633 C484.129014,137.071947 483.655907,138.810341 483.655907,140.988867 Z M497.568699,140.939356 C497.568699,143.745034 496.82053,146.019799 495.324168,147.763721 C493.827807,149.507642 491.759338,150.37959 489.1187,150.37959 C486.577085,150.37959 484.555377,149.49939 483.053514,147.738965 C481.551651,145.978539 480.800731,143.717527 480.800731,140.95586 C480.800731,138.139179 481.554402,135.861663 483.061766,134.123243 C484.56913,132.384822 486.637599,131.515625 489.267235,131.515625 C491.85286,131.515625 493.88282,132.387573 495.357176,134.131494 C496.831532,135.875416 497.568699,138.14468 497.568699,140.939356 Z M524.453562,150 L524.453562,140.57627 C524.453562,139.696057 524.434308,138.95889 524.395798,138.364746 C524.357289,137.770603 524.269269,137.165466 524.131736,136.549317 C523.994203,135.933168 523.801659,135.446307 523.554099,135.088721 C523.306539,134.731135 522.962711,134.439569 522.522605,134.214014 C522.082499,133.98846 521.554379,133.875684 520.93823,133.875684 C519.727938,133.875684 518.696454,134.200258 517.843748,134.849414 C516.991042,135.498571 516.383154,136.411778 516.020066,137.589063 C515.921042,138.381254 515.871531,139.228446 515.871531,140.130664 L515.871531,150 L513.115379,150 L513.115379,140.279199 C513.115379,139.465003 513.087872,138.758092 513.032859,138.158448 C512.977846,137.558803 512.873322,136.97567 512.719285,136.409034 C512.565248,135.842397 512.358951,135.383042 512.100388,135.030957 C511.841826,134.678872 511.497998,134.398309 511.068894,134.189258 C510.639791,133.980208 510.128175,133.875684 509.534031,133.875684 C508.213712,133.875684 507.105211,134.21126 506.208494,134.882422 C505.311777,135.553584 504.709391,136.444786 504.401316,137.556055 C504.302292,138.40326 504.252781,139.321968 504.252781,140.312207 L504.252781,150 L501.496629,150 C501.474624,138.678264 501.463621,132.643396 501.463621,131.895215 L503.774168,131.895215 L504.12075,134.486328 C504.670883,133.650126 505.45206,132.945967 506.464305,132.373829 C507.476549,131.80169 508.62631,131.515625 509.913621,131.515625 C510.584783,131.515625 511.203673,131.584391 511.77031,131.721924 C512.336947,131.859457 512.810055,132.032747 513.189646,132.241797 C513.569238,132.450848 513.907565,132.701155 514.204636,132.992725 C514.501708,133.284295 514.732761,133.57036 514.897801,133.850928 C515.06284,134.131496 515.200372,134.425813 515.310398,134.733887 C516.630717,132.588369 518.649675,131.515625 521.367332,131.515625 C523.380818,131.515625 524.857903,132.090506 525.79863,133.240284 C526.739358,134.390061 527.209714,136.092697 527.209714,138.348242 L527.209714,150 L524.453562,150 Z M541.155515,135.245508 C540.352321,134.277274 539.24657,133.793164 537.83823,133.793164 C536.429889,133.793164 535.280129,134.291027 534.388913,135.286768 C533.497698,136.282509 532.97508,137.644067 532.821042,139.371485 L542.376804,139.371485 C542.376804,137.578051 541.969712,136.202739 541.155515,135.245508 Z M538.382859,150.37959 C535.753223,150.37959 533.682004,149.5434 532.169138,147.870996 C530.656272,146.198592 529.899851,143.910073 529.899851,141.005371 C529.899851,138.199693 530.631517,135.924928 532.09487,134.181006 C533.558224,132.437085 535.483661,131.548633 537.871238,131.515625 C540.11578,131.515625 541.895433,132.283049 543.210251,133.81792 C544.525069,135.352791 545.182468,137.402006 545.182468,139.965625 C545.182468,140.097657 545.179717,140.339712 545.174216,140.691797 C545.168715,141.043882 545.165964,141.29694 545.165964,141.450977 L532.738523,141.450977 C532.771531,143.508474 533.302401,145.112087 534.33115,146.261865 C535.359898,147.411643 536.743462,147.986523 538.481882,147.986523 C540.396345,147.986523 542.31628,147.480409 544.241745,146.468164 L544.670847,148.696191 C542.833403,149.818463 540.737428,150.37959 538.382859,150.37959 Z M693.239007,149.554395 C692.853914,149.114288 692.661371,148.602672 692.661371,148.019531 C692.661371,147.43639 692.856665,146.927525 693.247259,146.49292 C693.637854,146.058315 694.174225,145.841016 694.85639,145.841016 C695.549558,145.841016 696.08868,146.055564 696.473773,146.484668 C696.858866,146.913772 697.05141,147.425388 697.05141,148.019531 C697.05141,148.613675 696.858866,149.125291 696.473773,149.554395 C696.08868,149.983498 695.549558,150.198047 694.85639,150.198047 C694.174225,150.198047 693.635103,149.983498 693.239007,149.554395 Z M696.473773,125.310157 L696.473773,127.653711 L695.549554,142.820801 L694.245746,142.820801 L693.222504,127.653711 L693.222504,125.310157 L696.473773,125.310157 Z" id="I-am-so-because-I-co" fill="#37C3BE"></path>
                <path d="M164.568359,99.8007812 C163.576167,98.4257744 162.798831,96.8437589 162.236328,95.0546875 C161.673825,93.2656161 161.392578,91.4648528 161.392578,89.6523438 C161.392578,85.8710748 162.439443,82.4062657 164.533203,79.2578125 L165.927734,79.2578125 C164.833979,81.1093843 164.066408,82.8437419 163.625,84.4609375 C163.183592,86.0781331 162.962891,87.7851473 162.962891,89.5820312 C162.962891,93.1054864 163.951162,96.5117023 165.927734,99.8007812 L164.568359,99.8007812 Z M172.197266,97.28125 C170.986322,97.28125 170.017582,96.9765655 169.291016,96.3671875 C168.564449,95.7578095 168.201172,94.8867244 168.201172,93.7539062 C168.201172,93.0820279 168.345702,92.4980494 168.634766,92.0019531 C168.92383,91.5058569 169.343747,91.1035172 169.894531,90.7949219 C170.445315,90.4863266 171.074215,90.2460946 171.78125,90.0742188 C172.488285,89.9023429 173.310542,89.7812504 174.248047,89.7109375 C175.248052,89.6484372 175.990232,89.5976564 176.474609,89.5585938 L176.474609,88.1289062 C176.474609,87.1445263 176.250002,86.4042994 175.800781,85.9082031 C175.35156,85.4121069 174.630864,85.1640625 173.638672,85.1640625 C172.27929,85.1640625 171.009772,85.488278 169.830078,86.1367188 C169.798828,86.0585934 169.726563,85.8886732 169.613281,85.6269531 C169.499999,85.3652331 169.419922,85.1640632 169.373047,85.0234375 C169.857424,84.7109359 170.49023,84.4492198 171.271484,84.2382812 C172.052738,84.0273427 172.818356,83.921875 173.568359,83.921875 C175.10743,83.921875 176.212887,84.2519498 176.884766,84.9121094 C177.556644,85.5722689 177.892578,86.7421791 177.892578,88.421875 L177.892578,97 L176.755859,97 C176.716797,96.8203116 176.660157,96.4648464 176.585938,95.9335938 C176.511718,95.4023411 176.474609,95.1289063 176.474609,95.1132812 C175.466792,96.558601 174.041025,97.28125 172.197266,97.28125 Z M172.244141,96.1210938 C173.244146,96.1210938 174.132809,95.8261748 174.910156,95.2363281 C175.687504,94.6464814 176.197264,93.8281302 176.439453,92.78125 L176.439453,90.5898438 C175.314447,90.6835942 174.748047,90.7304688 174.740234,90.7304688 C172.833975,90.9023446 171.509769,91.2148415 170.767578,91.6679688 C170.025387,92.121096 169.654297,92.824214 169.654297,93.7773438 C169.654297,94.5585977 169.890623,95.1445293 170.363281,95.5351562 C170.83594,95.9257832 171.462887,96.1210938 172.244141,96.1210938 Z M186.236328,97.2695312 C184.525382,97.2695312 183.191411,96.6757872 182.234375,95.4882812 C181.277339,94.3007753 180.798828,92.6601667 180.798828,90.5664062 C180.798828,88.5976464 181.292964,86.998053 182.28125,85.7675781 C183.269536,84.5371032 184.572258,83.921875 186.189453,83.921875 C186.986332,83.921875 187.783199,84.0937483 188.580078,84.4375 C189.376957,84.7812517 189.98242,85.3164026 190.396484,86.0429688 L190.396484,79.1757812 L191.802734,79.046875 L191.802734,97 L190.595703,97 L190.384766,95.0664062 C189.939451,95.7929724 189.335941,96.341795 188.574219,96.7128906 C187.812496,97.0839862 187.033207,97.2695312 186.236328,97.2695312 Z M186.201172,96.1210938 C186.927738,96.1210938 187.56445,95.9882826 188.111328,95.7226562 C188.658206,95.4570299 189.095701,95.0820337 189.423828,94.5976562 C189.751955,94.1132788 189.996093,93.5566438 190.15625,92.9277344 C190.316407,92.298825 190.396484,91.6015663 190.396484,90.8359375 C190.396484,87.0156059 188.990248,85.1054688 186.177734,85.1054688 C185.513669,85.1054688 184.927737,85.2636703 184.419922,85.5800781 C183.912107,85.896486 183.51172,86.3222629 183.21875,86.8574219 C182.92578,87.3925808 182.708985,87.9746062 182.568359,88.6035156 C182.427734,89.232425 182.357422,89.8945278 182.357422,90.5898438 C182.357422,91.1914093 182.40039,91.7558567 182.486328,92.2832031 C182.572266,92.8105495 182.71289,93.3124976 182.908203,93.7890625 C183.103517,94.2656274 183.345702,94.6738264 183.634766,95.0136719 C183.92383,95.3535173 184.287107,95.6230459 184.724609,95.8222656 C185.162112,96.0214854 185.654294,96.1210938 186.201172,96.1210938 Z M192.845703,103.445312 L192.623047,102.273438 L193.197266,102.273438 C193.744143,102.273438 194.16992,102.232422 194.474609,102.150391 C194.779298,102.068359 194.999999,101.892579 195.136719,101.623047 C195.273438,101.353514 195.353516,101.095704 195.376953,100.849609 C195.400391,100.603514 195.412109,100.187503 195.412109,99.6015625 L195.412109,84.15625 L196.876953,84.15625 L196.876953,99.8945312 C196.876953,100.62891 196.828125,101.214842 196.730469,101.652344 C196.632812,102.089846 196.44922,102.447264 196.179688,102.724609 C195.910155,103.001955 195.562502,103.191406 195.136719,103.292969 C194.710935,103.394532 194.138675,103.445312 193.419922,103.445312 L192.845703,103.445312 Z M195.412109,81.5195312 L195.412109,79.5625 L196.876953,79.5625 L196.876953,81.5195312 L195.412109,81.5195312 Z M205.232422,97.28125 C203.458976,97.28125 202.050786,96.6875059 201.007812,95.5 C199.964839,94.3124941 199.443359,92.7031352 199.443359,90.671875 C199.443359,88.7109277 199.95312,87.105475 200.972656,85.8554688 C201.992193,84.6054625 203.310539,83.9609377 204.927734,83.921875 C206.435554,83.921875 207.64648,84.4609321 208.560547,85.5390625 C209.474614,86.6171929 209.931641,88.0624909 209.931641,89.875 C209.931641,89.9453129 209.929688,90.0878896 209.925781,90.3027344 C209.921875,90.5175792 209.919922,90.6679683 209.919922,90.7539062 L200.978516,90.7539062 C200.994141,92.402352 201.392574,93.7089796 202.173828,94.6738281 C202.955082,95.6386767 203.986322,96.1210938 205.267578,96.1210938 C206.10352,96.1210938 206.830075,96.0234385 207.447266,95.828125 C208.064456,95.6328115 208.708981,95.3554705 209.380859,94.9960938 L209.626953,96.0859375 C208.330072,96.8828165 206.865243,97.28125 205.232422,97.28125 Z M201.037109,89.5820312 L208.349609,89.5820312 C208.349609,88.1523366 208.041019,87.0566444 207.423828,86.2949219 C206.806638,85.5331993 205.95899,85.1523438 204.880859,85.1523438 C203.787104,85.1523438 202.9043,85.5585897 202.232422,86.3710938 C201.560544,87.1835978 201.16211,88.2538996 201.037109,89.5820312 Z M218.193359,97.28125 C216.951166,97.28125 215.873051,96.9765655 214.958984,96.3671875 C214.044917,95.7578095 213.365237,94.9628955 212.919922,93.9824219 C212.474607,93.0019482 212.251953,91.9101623 212.251953,90.7070312 C212.251953,89.7851516 212.384764,88.9179728 212.650391,88.1054688 C212.916017,87.2929647 213.292966,86.5742219 213.78125,85.9492188 C214.269534,85.3242156 214.898434,84.8300799 215.667969,84.4667969 C216.437504,84.1035138 217.294917,83.921875 218.240234,83.921875 C218.857425,83.921875 219.472653,84.0039054 220.085938,84.1679688 C220.699222,84.3320321 221.154295,84.5273426 221.451172,84.7539062 L220.994141,85.84375 C220.189449,85.3906227 219.236334,85.1640625 218.134766,85.1640625 C216.798821,85.1640625 215.740238,85.6699168 214.958984,86.6816406 C214.17773,87.6933644 213.787109,89.0351479 213.787109,90.7070312 C213.787109,92.3086018 214.175777,93.6035107 214.953125,94.5917969 C215.730473,95.5800831 216.791009,96.0742188 218.134766,96.0742188 C219.07227,96.0742188 220.080073,95.8398461 221.158203,95.3710938 L221.380859,96.4140625 C221.01367,96.6875014 220.537112,96.9003899 219.951172,97.0527344 C219.365231,97.2050789 218.7793,97.28125 218.193359,97.28125 Z M227.767578,97.2695312 C226.689448,97.2695312 225.900393,97.0253931 225.400391,96.5371094 C224.900388,96.0488257 224.650391,95.2539118 224.650391,94.1523438 L224.650391,85.2226562 L222.833984,85.2226562 L222.939453,84.34375 L224.673828,84.1796875 L225.060547,81.2382812 L226.080078,81.1679688 L226.080078,84.15625 L229.830078,84.15625 L229.830078,85.2226562 L226.080078,85.2226562 L226.080078,93.8476562 C226.080078,94.7539108 226.228514,95.3613266 226.525391,95.6699219 C226.822267,95.9785172 227.345699,96.1328125 228.095703,96.1328125 C228.580081,96.1328125 229.181637,96.0429696 229.900391,95.8632812 L229.958984,96.9882812 C229.013667,97.1757822 228.283206,97.2695312 227.767578,97.2695312 Z M232.220703,97 L232.220703,84.15625 L233.685547,84.15625 L233.685547,97 L232.220703,97 Z M232.220703,81.53125 L232.220703,79.5625 L233.673828,79.5625 L233.673828,81.53125 L232.220703,81.53125 Z M240.470703,97 L235.572266,84.15625 L237.130859,84.15625 L240.107422,92.2539062 C240.263673,92.7617213 240.449218,93.3027315 240.664062,93.8769531 C240.878907,94.4511747 241.052734,94.8984359 241.185547,95.21875 L241.384766,95.6992188 C241.533204,95.1992162 241.726561,94.6621122 241.964844,94.0878906 C242.203126,93.513669 242.419921,92.9140656 242.615234,92.2890625 C242.826173,91.6171841 243.208982,90.6035224 243.763672,89.2480469 C244.318362,87.8925713 244.923825,86.1953227 245.580078,84.15625 L247.138672,84.15625 L242.158203,97 L240.470703,97 Z M254.076172,97.28125 C252.302726,97.28125 250.894536,96.6875059 249.851562,95.5 C248.808589,94.3124941 248.287109,92.7031352 248.287109,90.671875 C248.287109,88.7109277 248.79687,87.105475 249.816406,85.8554688 C250.835943,84.6054625 252.154289,83.9609377 253.771484,83.921875 C255.279304,83.921875 256.49023,84.4609321 257.404297,85.5390625 C258.318364,86.6171929 258.775391,88.0624909 258.775391,89.875 C258.775391,89.9453129 258.773438,90.0878896 258.769531,90.3027344 C258.765625,90.5175792 258.763672,90.6679683 258.763672,90.7539062 L249.822266,90.7539062 C249.837891,92.402352 250.236324,93.7089796 251.017578,94.6738281 C251.798832,95.6386767 252.830072,96.1210938 254.111328,96.1210938 C254.94727,96.1210938 255.673825,96.0234385 256.291016,95.828125 C256.908206,95.6328115 257.552731,95.3554705 258.224609,94.9960938 L258.470703,96.0859375 C257.173822,96.8828165 255.708993,97.28125 254.076172,97.28125 Z M249.880859,89.5820312 L257.193359,89.5820312 C257.193359,88.1523366 256.884769,87.0566444 256.267578,86.2949219 C255.650388,85.5331993 254.80274,85.1523438 253.724609,85.1523438 C252.630854,85.1523438 251.74805,85.5585897 251.076172,86.3710938 C250.404294,87.1835978 250.00586,88.2538996 249.880859,89.5820312 Z M261.072266,99.8007812 C263.048838,96.5038898 264.037109,93.0976738 264.037109,89.5820312 C264.037109,87.7929598 263.814455,86.0878987 263.369141,84.4667969 C262.923826,82.845695 262.154302,81.1093843 261.060547,79.2578125 L262.443359,79.2578125 C264.552745,82.4609535 265.607422,85.9257626 265.607422,89.6523438 C265.607422,91.4726654 265.324222,93.2714755 264.757812,95.0488281 C264.191403,96.8261808 263.412114,98.4101493 262.419922,99.8007812 L261.072266,99.8007812 Z" id="(adjective)" fill="#FFFFFF"></path>
                <path d="M471.683594,98.8007812 C470.691401,97.4257744 469.914065,95.8437589 469.351562,94.0546875 C468.78906,92.2656161 468.507812,90.4648528 468.507812,88.6523438 C468.507812,84.8710748 469.554677,81.4062657 471.648438,78.2578125 L473.042969,78.2578125 C471.949213,80.1093843 471.181643,81.8437419 470.740234,83.4609375 C470.298826,85.0781331 470.078125,86.7851473 470.078125,88.5820312 C470.078125,92.1054864 471.066396,95.5117023 473.042969,98.8007812 L471.683594,98.8007812 Z M479.066406,96 L474.167969,83.15625 L475.726562,83.15625 L478.703125,91.2539062 C478.859376,91.7617213 479.044921,92.3027315 479.259766,92.8769531 C479.47461,93.4511747 479.648437,93.8984359 479.78125,94.21875 L479.980469,94.6992188 C480.128907,94.1992162 480.322264,93.6621122 480.560547,93.0878906 C480.798829,92.513669 481.015624,91.9140656 481.210938,91.2890625 C481.421876,90.6171841 481.804685,89.6035224 482.359375,88.2480469 C482.914065,86.8925713 483.519528,85.1953227 484.175781,83.15625 L485.734375,83.15625 L480.753906,96 L479.066406,96 Z M492.671875,96.28125 C490.898429,96.28125 489.49024,95.6875059 488.447266,94.5 C487.404292,93.3124941 486.882812,91.7031352 486.882812,89.671875 C486.882812,87.7109277 487.392573,86.105475 488.412109,84.8554688 C489.431646,83.6054625 490.749992,82.9609377 492.367188,82.921875 C493.875008,82.921875 495.085933,83.4609321 496,84.5390625 C496.914067,85.6171929 497.371094,87.0624909 497.371094,88.875 C497.371094,88.9453129 497.369141,89.0878896 497.365234,89.3027344 C497.361328,89.5175792 497.359375,89.6679683 497.359375,89.7539062 L488.417969,89.7539062 C488.433594,91.402352 488.832027,92.7089796 489.613281,93.6738281 C490.394535,94.6386767 491.425775,95.1210938 492.707031,95.1210938 C493.542973,95.1210938 494.269528,95.0234385 494.886719,94.828125 C495.503909,94.6328115 496.148434,94.3554705 496.820312,93.9960938 L497.066406,95.0859375 C495.769525,95.8828165 494.304696,96.28125 492.671875,96.28125 Z M488.476562,88.5820312 L495.789062,88.5820312 C495.789062,87.1523366 495.480472,86.0566444 494.863281,85.2949219 C494.246091,84.5331993 493.398443,84.1523438 492.320312,84.1523438 C491.226557,84.1523438 490.343753,84.5585897 489.671875,85.3710938 C488.999997,86.1835978 488.601563,87.2538996 488.476562,88.5820312 Z M500.300781,96 C500.285156,88.4608998 500.277344,84.1796926 500.277344,83.15625 L501.472656,83.15625 L501.566406,85.6875 C502.027346,84.9218712 502.613278,84.2968774 503.324219,83.8125 C504.03516,83.3281226 504.77734,83.0859375 505.550781,83.0859375 C505.871095,83.0859375 506.214842,83.113281 506.582031,83.1679688 L506.476562,84.375 C506.195311,84.3281248 505.898439,84.3046875 505.585938,84.3046875 C504.499995,84.3046875 503.587894,84.7324176 502.849609,85.5878906 C502.111324,86.4433637 501.742188,87.4570254 501.742188,88.6289062 L501.742188,96 L500.300781,96 Z M514.1875,96.28125 C512.445304,96.28125 511.058599,95.5664134 510.027344,94.1367188 L509.875,96 L508.65625,96 L508.65625,78.1757812 L510.097656,78.046875 L510.097656,82.3710938 C510.097656,83.6914129 510.085938,84.60156 510.0625,85.1015625 C510.539065,84.3671838 511.146481,83.8203143 511.884766,83.4609375 C512.623051,83.1015607 513.390621,82.921875 514.1875,82.921875 C515.921884,82.921875 517.275386,83.5410094 518.248047,84.7792969 C519.220708,86.0175843 519.707031,87.6132715 519.707031,89.5664062 C519.707031,90.8789128 519.505861,92.0331981 519.103516,93.0292969 C518.70117,94.0253956 518.078129,94.8164033 517.234375,95.4023438 C516.390621,95.9882842 515.375006,96.28125 514.1875,96.28125 Z M514.257812,95.1210938 C514.976566,95.1210938 515.599607,94.9667984 516.126953,94.6582031 C516.6543,94.3496078 517.060545,93.9277371 517.345703,93.3925781 C517.630861,92.8574192 517.83789,92.2793 517.966797,91.6582031 C518.095704,91.0371063 518.160156,90.3632849 518.160156,89.6367188 C518.160156,89.0585909 518.123047,88.5136744 518.048828,88.0019531 C517.974609,87.4902318 517.841798,86.9902368 517.650391,86.5019531 C517.458983,86.0136694 517.220705,85.597658 516.935547,85.2539062 C516.650389,84.9101545 516.279299,84.6328136 515.822266,84.421875 C515.365232,84.2109364 514.843753,84.1054688 514.257812,84.1054688 C512.906243,84.1054688 511.87305,84.591792 511.158203,85.5644531 C510.443356,86.5371142 510.089844,87.9179598 510.097656,89.7070312 C510.097656,90.5273479 510.173827,91.2597624 510.326172,91.9042969 C510.478516,92.5488313 510.716795,93.1152319 511.041016,93.6035156 C511.365236,94.0917993 511.796872,94.4667956 512.335938,94.7285156 C512.875003,94.9902357 513.515621,95.1210938 514.257812,95.1210938 Z M521.957031,98.8007812 C523.933604,95.5038898 524.921875,92.0976738 524.921875,88.5820312 C524.921875,86.7929598 524.699221,85.0878987 524.253906,83.4667969 C523.808592,81.845695 523.039068,80.1093843 521.945312,78.2578125 L523.328125,78.2578125 C525.437511,81.4609535 526.492188,84.9257626 526.492188,88.6523438 C526.492188,90.4726654 526.208987,92.2714755 525.642578,94.0488281 C525.076169,95.8261808 524.29688,97.4101493 523.304688,98.8007812 L521.957031,98.8007812 Z" id="(verb)" fill="#FFFFFF"></path>
                <path d="M591.574219,178.800781 C590.582026,177.425774 589.80469,175.843759 589.242188,174.054688 C588.679685,172.265616 588.398438,170.464853 588.398438,168.652344 C588.398438,164.871075 589.445302,161.406266 591.539062,158.257812 L592.933594,158.257812 C591.839838,160.109384 591.072268,161.843742 590.630859,163.460938 C590.189451,165.078133 589.96875,166.785147 589.96875,168.582031 C589.96875,172.105486 590.957021,175.511702 592.933594,178.800781 L591.574219,178.800781 Z M595.769531,176 L595.769531,163.15625 L597.035156,163.15625 L597.234375,165.136719 C597.695315,164.449215 598.314449,163.908205 599.091797,163.513672 C599.869145,163.119139 600.707027,162.921875 601.605469,162.921875 C603.082039,162.921875 604.167965,163.328121 604.863281,164.140625 C605.558597,164.953129 605.90625,166.249991 605.90625,168.03125 L605.90625,176 L604.441406,176 L604.441406,167.375 C604.402344,166.234369 604.160158,165.414065 603.714844,164.914062 C603.269529,164.41406 602.539068,164.164062 601.523438,164.164062 C600.359369,164.164062 599.408207,164.457028 598.669922,165.042969 C597.931637,165.628909 597.468751,166.386714 597.28125,167.316406 C597.25,167.683596 597.234375,168.066404 597.234375,168.464844 L597.234375,176 L595.769531,176 Z M614.589844,175.121094 C615.527348,175.121094 616.318356,174.873049 616.962891,174.376953 C617.607425,173.880857 618.07617,173.226567 618.369141,172.414062 C618.662111,171.601558 618.808594,170.667974 618.808594,169.613281 C618.808594,167.957023 618.457035,166.625005 617.753906,165.617188 C617.050778,164.60937 615.980476,164.105469 614.542969,164.105469 C613.605464,164.105469 612.806644,164.357419 612.146484,164.861328 C611.486325,165.365237 611.003908,166.025387 610.699219,166.841797 C610.39453,167.658207 610.242188,168.593745 610.242188,169.648438 C610.242188,171.250008 610.615231,172.562495 611.361328,173.585938 C612.107426,174.60938 613.183587,175.121094 614.589844,175.121094 Z M614.484375,176.28125 C613.320307,176.28125 612.294926,175.988284 611.408203,175.402344 C610.52148,174.816403 609.845705,174.021489 609.380859,173.017578 C608.916013,172.013667 608.683594,170.878913 608.683594,169.613281 C608.683594,168.660151 608.818358,167.775395 609.087891,166.958984 C609.357423,166.142574 609.742185,165.43555 610.242188,164.837891 C610.74219,164.240231 611.363278,163.771486 612.105469,163.431641 C612.84766,163.091795 613.67187,162.921875 614.578125,162.921875 C615.781256,162.921875 616.824214,163.216794 617.707031,163.806641 C618.589848,164.396487 619.251951,165.189448 619.693359,166.185547 C620.134768,167.181646 620.355469,168.3164 620.355469,169.589844 C620.355469,170.8711 620.128909,172.011714 619.675781,173.011719 C619.222654,174.011724 618.546879,174.806638 617.648438,175.396484 C616.749996,175.986331 615.695319,176.28125 614.484375,176.28125 Z M627.996094,176.316406 C627.324215,176.316406 626.701175,176.240235 626.126953,176.087891 C625.552732,175.935546 625.019534,175.697267 624.527344,175.373047 C624.035154,175.048827 623.646486,174.589847 623.361328,173.996094 C623.07617,173.402341 622.933594,172.703129 622.933594,171.898438 L622.933594,163.15625 L624.386719,163.15625 L624.386719,171.933594 C624.386719,172.542972 624.480468,173.058592 624.667969,173.480469 C624.85547,173.902346 625.124998,174.220702 625.476562,174.435547 C625.828127,174.650392 626.203123,174.800781 626.601562,174.886719 C627.000002,174.972657 627.464841,175.015625 627.996094,175.015625 C628.519534,175.015625 628.980467,174.970704 629.378906,174.880859 C629.777346,174.791015 630.148436,174.63672 630.492188,174.417969 C630.835939,174.199218 631.099608,173.880861 631.283203,173.462891 C631.466798,173.04492 631.558594,172.535159 631.558594,171.933594 L631.558594,163.15625 L633.011719,163.15625 L633.011719,171.898438 C633.011719,172.554691 632.91797,173.140622 632.730469,173.65625 C632.542968,174.171878 632.29297,174.593748 631.980469,174.921875 C631.667967,175.250002 631.291018,175.521483 630.849609,175.736328 C630.408201,175.951173 629.95508,176.101562 629.490234,176.1875 C629.025388,176.273438 628.527346,176.316406 627.996094,176.316406 Z M636.175781,176 L636.175781,163.15625 L637.441406,163.15625 L637.640625,165.136719 C638.101565,164.449215 638.720699,163.908205 639.498047,163.513672 C640.275395,163.119139 641.113277,162.921875 642.011719,162.921875 C643.488289,162.921875 644.574215,163.328121 645.269531,164.140625 C645.964847,164.953129 646.3125,166.249991 646.3125,168.03125 L646.3125,176 L644.847656,176 L644.847656,167.375 C644.808594,166.234369 644.566408,165.414065 644.121094,164.914062 C643.675779,164.41406 642.945318,164.164062 641.929688,164.164062 C640.765619,164.164062 639.814457,164.457028 639.076172,165.042969 C638.337887,165.628909 637.875001,166.386714 637.6875,167.316406 C637.65625,167.683596 637.640625,168.066404 637.640625,168.464844 L637.640625,176 L636.175781,176 Z M649.066406,178.800781 C651.042979,175.50389 652.03125,172.097674 652.03125,168.582031 C652.03125,166.79296 651.808596,165.087899 651.363281,163.466797 C650.917967,161.845695 650.148443,160.109384 649.054688,158.257812 L650.4375,158.257812 C652.546886,161.460954 653.601562,164.925763 653.601562,168.652344 C653.601562,170.472665 653.318362,172.271475 652.751953,174.048828 C652.185544,175.826181 651.406255,177.410149 650.414062,178.800781 L649.066406,178.800781 Z" id="(noun)" fill="#FFFFFF"></path>
                <path d="M154.5,58 L272.004255,58" id="Line" stroke="#FFC107" stroke-width="2" stroke-linecap="square"></path>
                <path d="M438.5,58 L556.004255,58" id="Line-Copy" stroke="#FFC107" stroke-width="2" stroke-linecap="square"></path>
                <path d="M561.5,147 L679.004255,147" id="Line-Copy-2" stroke="#FFC107" stroke-width="2" stroke-linecap="square"></path>
            </g>
        </g>
    </g>
</svg>